<?xml version="1.0" encoding="utf-8"?>
<!DOCTYPE svg PUBLIC "-//W3C//DTD SVG 1.1//EN" "http://www.w3.org/Graphics/SVG/1.1/DTD/svg11.dtd">
<svg version="1.1" id="Layer_1" xmlns="http://www.w3.org/2000/svg" xmlns:xlink="http://www.w3.org/1999/xlink" x="0px" y="0px"
	 viewBox="0 0 40 40" enable-background="new 0 0 40 40" xml:space="preserve">
<path fill="#fff" d="M40,20C40,9,31,0,20,0C9,0,0,9,0,20c0,11,9,20,20,20C31,40,40,31,40,20z M27.5,24.7L20,17.2L13.2,24
	c-0.6,0.6-1.6,0.6-2.3,0s-0.6-1.6,0-2.3l6.9-6.9l2.3-2.3l2.3,2.3l7.5,7.5c0.6,0.6,0.6,1.6,0,2.3C29.2,25.3,28.2,25.3,27.5,24.7z"/>
</svg>
