<?xml version="1.0"?>
<svg xmlns="http://www.w3.org/2000/svg" xmlns:xlink="http://www.w3.org/1999/xlink" xmlns:svgjs="http://svgjs.com/svgjs" version="1.1" width="512" height="512" x="0" y="0" viewBox="0 0 311 311.07733" style="enable-background:new 0 0 512 512" xml:space="preserve" class=""><g><path xmlns="http://www.w3.org/2000/svg" d="m16.035156 311.078125c-4.097656 0-8.195312-1.558594-11.308594-4.695313-6.25-6.25-6.25-16.382812 0-22.632812l279.0625-279.0625c6.25-6.25 16.382813-6.25 22.632813 0s6.25 16.382812 0 22.636719l-279.058594 279.058593c-3.136719 3.117188-7.234375 4.695313-11.328125 4.695313zm0 0" fill="#fff8f8" data-original="#000000" style="" class=""/><path xmlns="http://www.w3.org/2000/svg" d="m295.117188 311.078125c-4.097657 0-8.191407-1.558594-11.308594-4.695313l-279.082032-279.058593c-6.25-6.253907-6.25-16.386719 0-22.636719s16.382813-6.25 22.636719 0l279.058594 279.0625c6.25 6.25 6.25 16.382812 0 22.632812-3.136719 3.117188-7.230469 4.695313-11.304687 4.695313zm0 0" fill="#fff8f8" data-original="#000000" style="" class=""/></g></svg>
